<svg width="396" height="35" viewBox="0 0 396 35" fill="none" xmlns="http://www.w3.org/2000/svg">
<path d="M34.7516 34.5625H-0.000390589V0.00249863H34.7516C36.2556 0.00249863 37.6476 0.290499 38.9276 0.866499C40.2396 1.4105 41.3756 2.1785 42.3356 3.1705C43.3276 4.1305 44.0956 5.2665 44.6396 6.5785C45.2156 7.8585 45.5036 9.2505 45.5036 10.7545V23.8105C45.5036 25.2825 45.2156 26.6745 44.6396 27.9865C44.0956 29.2985 43.3276 30.4505 42.3356 31.4425C41.3756 32.4025 40.2396 33.1705 38.9276 33.7465C37.6476 34.2905 36.2556 34.5625 34.7516 34.5625ZM35.2796 20.2105V14.3545C35.2796 13.7785 35.1676 13.2505 34.9436 12.7705C34.7516 12.2585 34.4636 11.8105 34.0796 11.4265C33.6956 11.0425 33.2476 10.7545 32.7356 10.5625C32.2556 10.3385 31.7276 10.2265 31.1516 10.2265H10.2236V24.3385H31.1516C31.7276 24.3385 32.2556 24.2425 32.7356 24.0505C33.2476 23.8265 33.6956 23.5225 34.0796 23.1385C34.4636 22.7545 34.7516 22.3225 34.9436 21.8425C35.1676 21.3305 35.2796 20.7865 35.2796 20.2105ZM50.2965 34.5625V0.00249863H93.7365V10.2265H60.5205V12.1945H92.5845V22.3705H60.5205V24.3385H93.7365V34.5625H50.2965ZM124.534 25.6825H126.406L142.438 0.00249863H154.438L132.982 34.5625H118.054L96.5977 0.00249863H108.646L124.534 25.6825ZM157.312 34.5625V0.00249863H200.752V10.2265H167.536V12.1945H199.6V22.3705H167.536V24.3385H200.752V34.5625H157.312ZM205.126 34.4665L205.078 0.00249863H215.302V24.3385H248.854V34.5625L205.126 34.4665ZM286.987 34.5625H262.891C261.419 34.5625 260.027 34.2905 258.715 33.7465C257.435 33.1705 256.299 32.4025 255.307 31.4425C254.347 30.4505 253.579 29.3145 253.003 28.0345C252.459 26.7225 252.187 25.3305 252.187 23.8585V10.7065C252.187 9.2345 252.459 7.8585 253.003 6.5785C253.579 5.2665 254.347 4.1305 255.307 3.1705C256.299 2.1785 257.435 1.4105 258.715 0.866499C260.027 0.290499 261.419 0.00249863 262.891 0.00249863H286.987C288.459 0.00249863 289.835 0.290499 291.115 0.866499C292.427 1.4105 293.563 2.1785 294.523 3.1705C295.515 4.1305 296.283 5.2665 296.827 6.5785C297.403 7.8585 297.691 9.2345 297.691 10.7065V23.8585C297.691 25.3305 297.403 26.7225 296.827 28.0345C296.283 29.3145 295.515 30.4505 294.523 31.4425C293.563 32.4025 292.427 33.1705 291.115 33.7465C289.835 34.2905 288.459 34.5625 286.987 34.5625ZM287.467 20.2105V14.3545C287.467 13.7785 287.355 13.2505 287.131 12.7705C286.939 12.2585 286.651 11.8105 286.267 11.4265C285.883 11.0425 285.435 10.7545 284.923 10.5625C284.443 10.3385 283.915 10.2265 283.339 10.2265H266.539C265.963 10.2265 265.419 10.3385 264.907 10.5625C264.427 10.7545 263.995 11.0425 263.611 11.4265C263.227 11.8105 262.923 12.2585 262.699 12.7705C262.507 13.2505 262.411 13.7785 262.411 14.3545V20.2105C262.411 20.7865 262.507 21.3305 262.699 21.8425C262.923 22.3225 263.227 22.7545 263.611 23.1385C263.995 23.5225 264.427 23.8265 264.907 24.0505C265.419 24.2425 265.963 24.3385 266.539 24.3385H283.339C283.915 24.3385 284.443 24.2425 284.923 24.0505C285.435 23.8265 285.883 23.5225 286.267 23.1385C286.651 22.7545 286.939 22.3225 287.131 21.8425C287.355 21.3305 287.467 20.7865 287.467 20.2105ZM336.767 27.6025H312.239V34.5625H302.015V0.00249863H336.767C338.271 0.00249863 339.663 0.290499 340.943 0.866499C342.255 1.4105 343.391 2.1785 344.351 3.1705C345.343 4.1305 346.111 5.2665 346.655 6.5785C347.231 7.8585 347.519 9.2505 347.519 10.7545V16.8505C347.519 18.3225 347.231 19.7145 346.655 21.0265C346.111 22.3385 345.343 23.4905 344.351 24.4825C343.391 25.4425 342.255 26.2105 340.943 26.7865C339.663 27.3305 338.271 27.6025 336.767 27.6025ZM337.295 13.9225V13.7785C337.295 13.1065 337.215 12.5465 337.055 12.0985C336.895 11.6505 336.639 11.2825 336.287 10.9945C335.967 10.7065 335.551 10.5145 335.039 10.4185C334.527 10.2905 333.903 10.2265 333.167 10.2265H312.239V17.3785H333.167C333.871 17.3785 334.479 17.3305 334.991 17.2345C335.535 17.1385 335.967 16.9625 336.287 16.7065C336.639 16.4505 336.895 16.0985 337.055 15.6505C337.215 15.2025 337.295 14.6265 337.295 13.9225ZM385.299 12.2905V0.00249863H395.523V34.5625H385.299V22.5145H362.067V34.5625H351.843V0.00249863H362.067V12.2905H385.299Z" fill="white"/>
</svg>
